<svg width="524" height="524" viewBox="0 0 524 524" fill="none" xmlns="http://www.w3.org/2000/svg">
<rect width="524" height="524" fill="black"/>
<path d="M265.5 396.5C240.5 396.5 219.5 392.5 202.5 384.5C185.5 376.5 172.333 365.667 163 352C153.667 338.333 148.333 323.167 147 306.5L206 304C208.667 316.667 214.833 326.833 224.5 334.5C234.167 341.833 248 345.5 266 345.5C282.667 345.5 295.167 343.333 303.5 339C312.167 334.333 316.5 327.5 316.5 318.5C316.5 312.833 315 308 312 304C309.333 300 303.833 296.667 295.5 294C287.167 291 274.833 287.833 258.5 284.5C231.833 279.167 210.833 273 195.5 266C180.167 259 169.167 250.167 162.5 239.5C156.167 228.833 153 215.833 153 200.5C153 184.833 157 170.833 165 158.5C173 145.833 184.833 135.833 200.5 128.5C216.5 121.167 236.167 117.5 259.5 117.5C284.833 117.5 305.5 121.667 321.5 130C337.5 138.333 349.667 149.167 358 162.5C366.667 175.833 372 190.167 374 205.5L314.5 208.5C312.833 200.833 309.667 194 305 188C300.333 182 294.167 177.333 286.5 174C278.833 170.333 270 168.5 260 168.5C243.667 168.5 231.833 171.667 224.5 178C217.167 184.333 213.5 191.833 213.5 200.5C213.5 207.5 215.333 213.333 219 218C223 222.333 229.5 226 238.5 229C247.5 232 260 235 276 238C302.333 243 322.833 248.833 337.5 255.5C352.167 262.167 362.333 270.5 368 280.5C374 290.5 377 303 377 318C377 334.333 372.5 348.333 363.5 360C354.5 371.667 341.667 380.667 325 387C308.333 393.333 288.5 396.5 265.5 396.5Z" fill="white"/>
</svg>
